<svg width="1440" height="820" viewBox="0 0 1440 820" fill="none" xmlns="http://www.w3.org/2000/svg">
  <rect width="1440" height="820" fill="#07111f"/>
  <rect y="0" width="1440" height="58" fill="#101827"/>
  <text x="34" y="37" fill="#f8fafc" font-family="Segoe UI, Arial" font-size="22" font-weight="800">SecureWatch SIEM</text>
  <text x="255" y="36" fill="#93c5fd" font-family="Segoe UI, Arial" font-size="15">Dashboard</text>
  <text x="365" y="36" fill="#cbd5e1" font-family="Segoe UI, Arial" font-size="15">Events</text>
  <text x="445" y="36" fill="#cbd5e1" font-family="Segoe UI, Arial" font-size="15">Alerts</text>
  <text x="160" y="112" fill="#f8fafc" font-family="Segoe UI, Arial" font-size="34" font-weight="800">Realtime Security Operations</text>
  <text x="160" y="142" fill="#93c5fd" font-family="Segoe UI, Arial" font-size="16">Bull + Redis queue, Python analyzer, correlation rules and live WebSocket updates.</text>
  <g font-family="Segoe UI, Arial">
    <rect x="160" y="185" width="220" height="95" rx="14" fill="#101c2e" stroke="#263a57"/><text x="190" y="225" fill="#38bdf8" font-size="16">Events</text><text x="190" y="260" fill="#fff" font-size="32" font-weight="800">4,286</text>
    <rect x="405" y="185" width="220" height="95" rx="14" fill="#101c2e" stroke="#263a57"/><text x="435" y="225" fill="#f59e0b" font-size="16">Open alerts</text><text x="435" y="260" fill="#fff" font-size="32" font-weight="800">14</text>
    <rect x="650" y="185" width="220" height="95" rx="14" fill="#101c2e" stroke="#263a57"/><text x="680" y="225" fill="#ef4444" font-size="16">Critical threats</text><text x="680" y="260" fill="#fff" font-size="32" font-weight="800">3</text>
    <rect x="895" y="185" width="220" height="95" rx="14" fill="#101c2e" stroke="#263a57"/><text x="925" y="225" fill="#60a5fa" font-size="16">Queue latency</text><text x="925" y="260" fill="#fff" font-size="32" font-weight="800">82ms</text>
  </g>
  <rect x="160" y="320" width="530" height="330" rx="16" fill="#101c2e" stroke="#263a57"/>
  <text x="190" y="360" fill="#f8fafc" font-family="Segoe UI, Arial" font-size="21" font-weight="700">Events by hour</text>
  <polyline points="205,585 290,510 375,540 460,430 545,465 630,375" stroke="#38bdf8" stroke-width="5" fill="none"/>
  <rect x="725" y="320" width="560" height="330" rx="16" fill="#101c2e" stroke="#263a57"/>
  <text x="755" y="360" fill="#f8fafc" font-family="Segoe UI, Arial" font-size="21" font-weight="700">Active alerts</text>
  <g font-family="Segoe UI, Arial" font-size="15">
    <text x="755" y="420" fill="#93c5fd">Threat</text><text x="1000" y="420" fill="#93c5fd">Severity</text><text x="1135" y="420" fill="#93c5fd">Status</text>
    <line x1="755" y1="438" x2="1245" y2="438" stroke="#263a57"/>
    <text x="755" y="478" fill="#f8fafc">Brute force from 203.0.113.24</text><text x="1000" y="478" fill="#ef4444">CRITICAL</text><text x="1135" y="478" fill="#f59e0b">OPEN</text>
    <text x="755" y="528" fill="#f8fafc">SQL injection payload</text><text x="1000" y="528" fill="#ef4444">HIGH</text><text x="1135" y="528" fill="#60a5fa">ACK</text>
  </g>
</svg>
